<svg width="18" height="20" viewBox="0 0 18 20" fill="none" xmlns="http://www.w3.org/2000/svg">
<path d="M14.5 6.33334C14.5 4.87465 13.9205 3.47571 12.8891 2.44426C11.8576 1.41281 10.4587 0.833344 9 0.833344C7.54131 0.833344 6.14236 1.41281 5.11091 2.44426C4.07946 3.47571 3.5 4.87465 3.5 6.33334C3.5 12.75 0.75 14.5833 0.75 14.5833H17.25C17.25 14.5833 14.5 12.75 14.5 6.33334Z" stroke="#A3A3A3" stroke-width="1.5" stroke-linecap="round" stroke-linejoin="round"/>
<path d="M10.5858 18.25C10.4247 18.5278 10.1934 18.7584 9.91504 18.9187C9.63672 19.079 9.32118 19.1634 9 19.1634C8.67882 19.1634 8.36327 19.079 8.08496 18.9187C7.80664 18.7584 7.57533 18.5278 7.41417 18.25" stroke="#A3A3A3" stroke-width="1.5" stroke-linecap="round" stroke-linejoin="round"/>
</svg>
