<svg width="21" height="23" viewBox="0 0 21 23" fill="none" xmlns="http://www.w3.org/2000/svg">
<path d="M16.75 7.33333C16.75 5.67573 16.0915 4.08601 14.9194 2.91391C13.7473 1.74181 12.1576 1.08333 10.5 1.08333C8.8424 1.08333 7.25268 1.74181 6.08058 2.91391C4.90848 4.08601 4.25 5.67573 4.25 7.33333C4.25 14.625 1.125 16.7083 1.125 16.7083H19.875C19.875 16.7083 16.75 14.625 16.75 7.33333Z" stroke="#00E190" stroke-width="1.5" stroke-linecap="round" stroke-linejoin="round"/>
<path d="M12.3014 20.875C12.1183 21.1907 11.8554 21.4528 11.5392 21.6349C11.2229 21.8171 10.8643 21.913 10.4993 21.913C10.1344 21.913 9.7758 21.8171 9.45953 21.6349C9.14326 21.4528 8.8804 21.1907 8.69727 20.875" stroke="#00E190" stroke-width="1.5" stroke-linecap="round" stroke-linejoin="round"/>
</svg>
