<svg width="20" height="20" viewBox="0 0 20 20" fill="none" xmlns="http://www.w3.org/2000/svg">
<path d="M10 19.1666C15.0626 19.1666 19.1667 15.0626 19.1667 9.99998C19.1667 4.93737 15.0626 0.833313 10 0.833313C4.93739 0.833313 0.833334 4.93737 0.833334 9.99998C0.833334 15.0626 4.93739 19.1666 10 19.1666Z" stroke="#A3A3A3" stroke-width="1.5" stroke-linecap="round" stroke-linejoin="round"/>
<path d="M7.3325 7.24997C7.54801 6.63733 7.97339 6.12074 8.53329 5.79168C9.09319 5.46262 9.75149 5.34233 10.3916 5.45213C11.0317 5.56192 11.6122 5.8947 12.0305 6.39154C12.4487 6.88838 12.6776 7.5172 12.6767 8.16664C12.6767 9.99997 9.92667 10.9166 9.92667 10.9166" stroke="#A3A3A3" stroke-width="1.5" stroke-linecap="round" stroke-linejoin="round"/>
<path d="M10 14.5833H10.01" stroke="#A3A3A3" stroke-width="1.5" stroke-linecap="round" stroke-linejoin="round"/>
</svg>
