<svg width="4" height="18" viewBox="0 0 4 18" fill="none" xmlns="http://www.w3.org/2000/svg">
<path d="M2.00016 9.91667C2.50642 9.91667 2.91683 9.50626 2.91683 9C2.91683 8.49374 2.50642 8.08334 2.00016 8.08334C1.4939 8.08334 1.0835 8.49374 1.0835 9C1.0835 9.50626 1.4939 9.91667 2.00016 9.91667Z" stroke="#A3A3A3" stroke-width="2" stroke-linecap="round" stroke-linejoin="round"/>
<path d="M2.00016 3.5C2.50642 3.5 2.91683 3.0896 2.91683 2.58333C2.91683 2.07707 2.50642 1.66667 2.00016 1.66667C1.4939 1.66667 1.0835 2.07707 1.0835 2.58333C1.0835 3.0896 1.4939 3.5 2.00016 3.5Z" stroke="#A3A3A3" stroke-width="2" stroke-linecap="round" stroke-linejoin="round"/>
<path d="M2.00016 16.3333C2.50642 16.3333 2.91683 15.9229 2.91683 15.4167C2.91683 14.9104 2.50642 14.5 2.00016 14.5C1.4939 14.5 1.0835 14.9104 1.0835 15.4167C1.0835 15.9229 1.4939 16.3333 2.00016 16.3333Z" stroke="#A3A3A3" stroke-width="2" stroke-linecap="round" stroke-linejoin="round"/>
</svg>
