<svg width="21" height="23" viewBox="0 0 21 23" fill="none" xmlns="http://www.w3.org/2000/svg">
<path d="M16.75 7.33333C16.75 5.67573 16.0915 4.08601 14.9194 2.91391C13.7473 1.74181 12.1576 1.08333 10.5 1.08333C8.8424 1.08333 7.25268 1.74181 6.08058 2.91391C4.90848 4.08601 4.25 5.67573 4.25 7.33333C4.25 14.625 1.125 16.7083 1.125 16.7083H19.875C19.875 16.7083 16.75 14.625 16.75 7.33333Z" stroke="#00E190" stroke-width="1.5" stroke-linecap="round" stroke-linejoin="round"/>
<path d="M12.3021 20.875C12.119 21.1907 11.8561 21.4528 11.5398 21.6349C11.2236 21.8171 10.865 21.913 10.5 21.913C10.135 21.913 9.77645 21.8171 9.46019 21.6349C9.14392 21.4528 8.88106 21.1907 8.69792 20.875" stroke="#00E190" stroke-width="1.5" stroke-linecap="round" stroke-linejoin="round"/>
</svg>
