<svg width="15" height="14" viewBox="0 0 15 14" fill="none" xmlns="http://www.w3.org/2000/svg">
<path d="M0.625 2V5.75H4.375" stroke="#EB5757" stroke-width="1.2" stroke-linecap="round" stroke-linejoin="round"/>
<path d="M14.375 12V8.25H10.625" stroke="#EB5757" stroke-width="1.2" stroke-linecap="round" stroke-linejoin="round"/>
<path d="M12.8062 5.12499C12.4893 4.22923 11.9505 3.42836 11.2403 2.79712C10.5301 2.16588 9.67158 1.72484 8.74482 1.51515C7.81806 1.30546 6.85328 1.33395 5.94051 1.59797C5.02773 1.86199 4.19672 2.35293 3.525 3.02499L0.625 5.74999M14.375 8.24999L11.475 10.975C10.8033 11.647 9.97227 12.138 9.05949 12.402C8.14672 12.666 7.18194 12.6945 6.25518 12.4848C5.32842 12.2751 4.46987 11.8341 3.75967 11.2028C3.04946 10.5716 2.51073 9.77075 2.19375 8.87499" stroke="#EB5757" stroke-width="1.2" stroke-linecap="round" stroke-linejoin="round"/>
</svg>
