<svg width="19" height="20" viewBox="0 0 19 20" fill="none" xmlns="http://www.w3.org/2000/svg">
<path d="M14.591 6.33333C14.591 4.87464 14.0115 3.47569 12.9801 2.44424C11.9486 1.41279 10.5497 0.833332 9.091 0.833332C7.63231 0.833332 6.23337 1.41279 5.20192 2.44424C4.17047 3.47569 3.591 4.87464 3.591 6.33333C3.591 12.75 0.841003 14.5833 0.841003 14.5833H17.341C17.341 14.5833 14.591 12.75 14.591 6.33333Z" stroke="#F2F2F2" stroke-width="1.5" stroke-linecap="round" stroke-linejoin="round"/>
<path d="M10.6769 18.25C10.5157 18.5278 10.2844 18.7584 10.0061 18.9187C9.72775 19.079 9.4122 19.1634 9.09102 19.1634C8.76984 19.1634 8.4543 19.079 8.17598 18.9187C7.89767 18.7584 7.66635 18.5278 7.50519 18.25" stroke="#F2F2F2" stroke-width="1.5" stroke-linecap="round" stroke-linejoin="round"/>
</svg>
